0
SECTION
2
HEADER
9
$INSUNITS
70
4
9
$ACADVER
1
AC1014
9
$HANDSEED
5
FFFF
0
ENDSEC
0
SECTION
2
TABLES
0
TABLE
2
VPORT
5
8
100
AcDbSymbolTable
0
ENDTAB
0
TABLE
2
LTYPE
5
5
100
AcDbSymbolTable
0
LTYPE
5
14
100
AcDbSymbolTableRecord
100
AcDbLinetypeTableRecord
2
BYBLOCK
70
0
0
LTYPE
5
15
100
AcDbSymbolTableRecord
100
AcDbLinetypeTableRecord
2
BYLAYER
70
0
0
ENDTAB
0
TABLE
2
LAYER
5
2
100
AcDbSymbolTable
70
2
0
LAYER
5
50
100
AcDbSymbolTableRecord
100
AcDbLayerTableRecord
2
0
70
0
6
CONTINUOUS
0
ENDTAB
0
TABLE
2
STYLE
5
3
100
AcDbSymbolTable
70
1
0
STYLE
5
11
100
AcDbSymbolTableRecord
100
AcDbTextStyleTableRecord
2
STANDARD
70
0
0
ENDTAB
0
TABLE
2
VIEW
5
6
100
AcDbSymbolTable
70
0
0
ENDTAB
0
TABLE
2
UCS
5
7
100
AcDbSymbolTable
70
0
0
ENDTAB
0
TABLE
2
APPID
5
9
100
AcDbSymbolTable
70
2
0
APPID
5
12
100
AcDbSymbolTableRecord
100
AcDbRegAppTableRecord
2
ACAD
70
0
0
ENDTAB
0
TABLE
2
DIMSTYLE
5
A
100
AcDbSymbolTable
70
1
0
ENDTAB
0
TABLE
2
BLOCK_RECORD
5
1
100
AcDbSymbolTable
70
1
0
BLOCK_RECORD
5
1F
100
AcDbSymbolTableRecord
100
AcDbBlockTableRecord
2
*MODEL_SPACE
0
BLOCK_RECORD
5
1B
100
AcDbSymbolTableRecord
100
AcDbBlockTableRecord
2
*PAPER_SPACE
0
ENDTAB
0
ENDSEC
0
SECTION
2
BLOCKS
0
BLOCK
5
20
100
AcDbEntity
100
AcDbBlockBegin
2
*MODEL_SPACE
0
ENDBLK
5
21
100
AcDbEntity
100
AcDbBlockEnd
0
BLOCK
5
1C
100
AcDbEntity
100
AcDbBlockBegin
2
*PAPER_SPACE
0
ENDBLK
5
1D
100
AcDbEntity
100
AcDbBlockEnd
0
ENDSEC
0
SECTION
2
ENTITIES
0
LWPOLYLINE
5
100
100
AcDbEntity
8
0
100
AcDbPolyline
90
85
70
1
43
0.0
10
245.39909661429846
20
-3.8897335859687421
10
249.66707911559018
20
-8.1577160877948884
42
0.19891236758124428
10
250.71006161899237
20
-8.5897335864120539
10
251.75295483744182
20
-8.5897335861904249
10
252.93104243649597
20
-8.5897335861537982
42
0.3485617980925092
10
256.66065367613004
20
-8.5897335860378394
10
258.88163449389145
20
-8.5897335859687889
42
0.19891236738313092
10
259.92461699615546
20
-8.1577160882049444
10
264.19259949803529
20
-3.8897335859687838
10
287.10834805589121
20
-3.8897335859688376
42
0.41421356237310414
10
289.10834805589121
20
-1.8897335859688265
10
289.10834805589138
20
114.62276641402907
42
0.41421356237310542
10
287.10834805589144
20
116.62276641402906
10
249.32961671298298
20
116.62276641402931
42
-0.19891236735648474
10
248.60483226233123
20
116.92298196324853
10
245.63706530895524
20
119.89074891609503
42
0.1989123673690863
10
244.59408280695163
20
120.32276641376752
10
243.55118958792158
20
120.32276641389943
10
243.04601187764038
20
120.32276641390878
42
0.5516772843770763
10
237.97058086141294
20
120.32276641400267
10
236.42250993189165
20
120.32276641403132
42
0.19891236738604115
10
235.37952742961608
20
119.89074891625609
10
232.41176047722237
20
116.92298196341358
42
-0.1989123673993051
10
231.68697602634131
20
116.62276641402941
10
82.642116712982499
20
116.62276641403039
42
-0.19891236735646881
10
81.917332262331044
20
116.92298196324944
10
78.94956530895567
20
119.89074891609499
42
0.19891236736906298
10
77.90658280695223
20
120.32276641376748
10
76.863689587922167
20
120.32276641389942
10
76.358511877640922
20
120.32276641390874
42
0.5516772843770833
10
71.283080861413467
20
120.32276641400271
10
69.735009931892165
20
120.32276641403135
42
0.19891236738599277
10
68.692027429616601
20
119.89074891625611
10
65.724260477223893
20
116.92298196341477
42
-0.1989123673993089
10
64.99947602634262
20
116.62276641403051
10
-12.607831600018313
20
116.62276641403099
42
-0.19891236735648232
10
-13.332616050669991
20
116.92298196325021
10
-16.300383004043901
20
119.89074891609492
42
0.19891236736909576
10
-17.343365506047572
20
120.32276641376762
10
-18.386258725077607
20
120.32276641389949
10
-18.891436435358685
20
120.32276641390881
42
0.55167728437707375
10
-23.966867451586079
20
120.32276641400271
10
-25.514938381107584
20
120.32276641403135
42
0.19891236738596793
10
-26.557920883383108
20
119.89074891625613
10
-29.525687835775241
20
116.92298196341528
42
-0.19891236739930707
10
-30.250472286656226
20
116.62276641403116
10
-58.50415194410747
20
116.62276641403128
42
0.41421356237309503
10
-60.504151944107463
20
114.62276641403135
10
-60.504151944107676
20
-1.8897335859680631
42
0.41421356237309481
10
-58.504151944107683
20
-3.8897335859680719
10
-49.875903385701008
20
-3.8897335859680835
10
-45.607920884408827
20
-8.1577160877948813
42
0.19891236758121714
10
-44.564938381006804
20
-8.5897335864120521
10
-43.522045162557305
20
-8.5897335861904249
10
-42.343957563502656
20
-8.5897335861537982
42
0.34856179809241622
10
-38.614346323869299
20
-8.5897335860378412
10
-36.393365506107791
20
-8.5897335859687924
42
0.19891236738315268
10
-35.350383003843604
20
-8.157716088204916
10
-31.082400501963185
20
-3.8897335859681252
10
-5.4799999240358233
20
-3.8897335859681803
10
-5.4799999240363206
20
-8.5286255080732332
42
0.41421356237310658
10
-4.718625085831416
20
-9.2900003462782674
10
-3.9512504384154603
20
-9.2900003462783367
10
3.9511625471289511
20
-9.2900003462790455
10
4.7186250851699718
20
-9.2900003462791148
42
0.41421356237311879
10
5.4799999233758001
20
-8.5286255080733397
10
5.4799999233757646
20
-3.8897335859681981
10
73.949096614297858
20
-3.8897335859683597
10
78.217079115590764
20
-8.1577160877948902
42
0.19891236758121683
10
79.260061618992793
20
-8.5897335864120645
10
80.302954837442257
20
-8.5897335861904267
10
81.481042436496296
20
-8.5897335861538018
42
0.34856179809245091
10
85.210653676129965
20
-8.5897335860378625
10
87.431634493891778
20
-8.5897335859688173
42
0.19891236738317661
10
88.474616996156001
20
-8.1577160882049355
10
92.742599498036213
20
-3.8897335859684019
10
159.67409661429872
20
-3.8897335859685507
10
163.94207911559047
20
-8.1577160877949222
42
0.1989123675812158
10
164.98506161899263
20
-8.5897335864121089
10
166.02795483744214
20
-8.589733586190464
10
167.20604243649643
20
-8.5897335861538355
42
0.34856179809248472
10
170.93565367613039
20
-8.5897335860378927
10
173.15663449389154
20
-8.5897335859688102
42
0.19891236738313367
10
174.19961699615573
20
-8.1577160882049888
10
178.46759949803572
20
-3.8897335859685929
0
ENDSEC
0
SECTION
2
OBJECTS
0
DICTIONARY
5
C
100
AcDbDictionary
3
ACAD_GROUP
350
D
3
ACAD_MLINESTYLE
350
17
0
DICTIONARY
5
D
100
AcDbDictionary
0
DICTIONARY
5
1A
330
C
100
AcDbDictionary
0
DICTIONARY
5
17
100
AcDbDictionary
0
ENDSEC
0
EOF
