0
SECTION
2
HEADER
9
$INSUNITS
70
4
9
$ACADVER
1
AC1014
9
$HANDSEED
5
FFFF
0
ENDSEC
0
SECTION
2
TABLES
0
TABLE
2
VPORT
5
8
100
AcDbSymbolTable
0
ENDTAB
0
TABLE
2
LTYPE
5
5
100
AcDbSymbolTable
0
LTYPE
5
14
100
AcDbSymbolTableRecord
100
AcDbLinetypeTableRecord
2
BYBLOCK
70
0
0
LTYPE
5
15
100
AcDbSymbolTableRecord
100
AcDbLinetypeTableRecord
2
BYLAYER
70
0
0
ENDTAB
0
TABLE
2
LAYER
5
2
100
AcDbSymbolTable
70
2
0
LAYER
5
50
100
AcDbSymbolTableRecord
100
AcDbLayerTableRecord
2
0
70
0
6
CONTINUOUS
0
ENDTAB
0
TABLE
2
STYLE
5
3
100
AcDbSymbolTable
70
1
0
STYLE
5
11
100
AcDbSymbolTableRecord
100
AcDbTextStyleTableRecord
2
STANDARD
70
0
0
ENDTAB
0
TABLE
2
VIEW
5
6
100
AcDbSymbolTable
70
0
0
ENDTAB
0
TABLE
2
UCS
5
7
100
AcDbSymbolTable
70
0
0
ENDTAB
0
TABLE
2
APPID
5
9
100
AcDbSymbolTable
70
2
0
APPID
5
12
100
AcDbSymbolTableRecord
100
AcDbRegAppTableRecord
2
ACAD
70
0
0
ENDTAB
0
TABLE
2
DIMSTYLE
5
A
100
AcDbSymbolTable
70
1
0
ENDTAB
0
TABLE
2
BLOCK_RECORD
5
1
100
AcDbSymbolTable
70
1
0
BLOCK_RECORD
5
1F
100
AcDbSymbolTableRecord
100
AcDbBlockTableRecord
2
*MODEL_SPACE
0
BLOCK_RECORD
5
1B
100
AcDbSymbolTableRecord
100
AcDbBlockTableRecord
2
*PAPER_SPACE
0
ENDTAB
0
ENDSEC
0
SECTION
2
BLOCKS
0
BLOCK
5
20
100
AcDbEntity
100
AcDbBlockBegin
2
*MODEL_SPACE
0
ENDBLK
5
21
100
AcDbEntity
100
AcDbBlockEnd
0
BLOCK
5
1C
100
AcDbEntity
100
AcDbBlockBegin
2
*PAPER_SPACE
0
ENDBLK
5
1D
100
AcDbEntity
100
AcDbBlockEnd
0
ENDSEC
0
SECTION
2
ENTITIES
0
LWPOLYLINE
5
100
100
AcDbEntity
8
0
100
AcDbPolyline
90
62
70
1
43
0.0
10
-37.477000427577117
20
-2.8897335859681128
42
0.41421356237309231
10
-36.477000427577124
20
-3.8897335859681132
10
-5.4799999240358233
20
-3.8897335859681803
10
-5.4799999240363206
20
-8.5286255080732332
42
0.41421356237310658
10
-4.718625085831416
20
-9.2900003462782674
10
4.7186250851699718
20
-9.2900003462791148
42
0.41421356237311879
10
5.4799999233758001
20
-8.5286255080733397
10
5.4799999233757646
20
-3.8897335859681981
10
19.793000411649722
20
-3.8897335859682336
42
0.4142135623731012
10
20.793000411649739
20
-2.8897335859682372
10
20.793000411649739
20
-2.4167143299316689
42
-0.85211383907832616
10
26.814999389309818
20
-2.4167143299321565
10
26.814999389309815
20
-2.8897335859682549
42
0.41421356237309587
10
27.814999389309811
20
-3.889733585968254
10
100.75400085406976
20
-3.8897335859684112
42
0.41421356237309698
10
101.75400085406976
20
-2.8897335859684148
10
101.75400085406972
20
-2.4167299714964754
42
-0.85197791661348621
10
107.77699737506772
20
-2.4167299714838126
10
107.77699737506772
20
-2.8897335859684325
42
0.4142135623730972
10
108.77699737506774
20
-3.8897335859684361
10
181.71800537066972
20
-3.8897335859686066
42
0.41421356237310575
10
182.71800537066977
20
-2.8897335859685924
10
182.7180053706698
20
-2.4167143002925524
42
-0.85211409907413016
10
188.740002441027
20
-2.4167143000261011
10
188.740002441027
20
-2.889733585968699
42
0.41421356237306217
10
189.74000244102706
20
-3.8897335859686013
10
262.68098754846972
20
-3.8897335859687843
42
0.4142135623730947
10
263.68098754846972
20
-2.8897335859687789
10
263.68098754846972
20
-2.4167300911209608
42
-0.85197801612263224
10
269.70399297762305
20
-2.4167380395824356
10
269.70403143630995
20
-2.8898148807679735
42
0.41418975187812845
10
270.70403143300553
20
-3.8897335859687852
10
287.10834805589121
20
-3.8897335859688376
42
0.4142135623730972
10
289.10834805589121
20
-1.8897335859688267
10
289.10834805589138
20
114.62276641402909
42
0.41421356237309503
10
287.10834805589144
20
116.62276641402909
10
238.55700378377077
20
116.62276641402939
42
0.41421356237254353
10
237.55700378377077
20
115.62276641403123
10
237.5570037837698
20
115.09867776460385
42
-0.85243383733672884
10
231.53500671346978
20
115.09867776522789
10
231.53500671346976
20
115.62276641402946
42
0.41421356237309503
10
230.53500671346973
20
116.62276641402947
10
80.203917945115165
20
116.62276641403041
42
0.41425732367784246
10
79.203917956276541
20
115.62261700590254
10
79.203996982201105
20
115.09369046896876
42
-0.85291106466854649
10
73.182002257956057
20
115.09854325012361
10
73.182002257956086
20
115.62276641403044
42
0.41421356237310025
10
72.1820022579561
20
116.62276641403047
10
-17.426999283167248
20
116.62276641403103
42
0.4142135623730937
10
-18.426999283167241
20
115.62276641403108
10
-18.426999283167255
20
115.09873018663002
42
-0.85197738734540052
10
-24.449999618870727
20
115.09873018668891
10
-24.449999618870724
20
115.6227664140311
42
0.41421356237308982
10
-25.44999961887072
20
116.6227664140311
10
-58.50415194410747
20
116.6227664140313
42
0.41421356237309503
10
-60.504151944107463
20
114.62276641403135
10
-60.504151944107676
20
-1.8897335859680631
42
0.41421356237309481
10
-58.504151944107683
20
-3.8897335859680719
10
-44.500000763269263
20
-3.8897335859680915
42
0.41421356237309537
10
-43.50000076326927
20
-2.889733585968095
10
-43.50000076326927
20
-2.4167300312869071
42
-0.85197739696305019
10
-37.477000427577117
20
-2.4167300312878126
0
ENDSEC
0
SECTION
2
OBJECTS
0
DICTIONARY
5
C
100
AcDbDictionary
3
ACAD_GROUP
350
D
3
ACAD_MLINESTYLE
350
17
0
DICTIONARY
5
D
100
AcDbDictionary
0
DICTIONARY
5
1A
330
C
100
AcDbDictionary
0
DICTIONARY
5
17
100
AcDbDictionary
0
ENDSEC
0
EOF
