0
SECTION
2
HEADER
9
$INSUNITS
70
4
9
$ACADVER
1
AC1014
9
$HANDSEED
5
FFFF
0
ENDSEC
0
SECTION
2
TABLES
0
TABLE
2
VPORT
5
8
100
AcDbSymbolTable
0
ENDTAB
0
TABLE
2
LTYPE
5
5
100
AcDbSymbolTable
0
LTYPE
5
14
100
AcDbSymbolTableRecord
100
AcDbLinetypeTableRecord
2
BYBLOCK
70
0
0
LTYPE
5
15
100
AcDbSymbolTableRecord
100
AcDbLinetypeTableRecord
2
BYLAYER
70
0
0
ENDTAB
0
TABLE
2
LAYER
5
2
100
AcDbSymbolTable
70
2
0
LAYER
5
50
100
AcDbSymbolTableRecord
100
AcDbLayerTableRecord
2
0
70
0
6
CONTINUOUS
0
ENDTAB
0
TABLE
2
STYLE
5
3
100
AcDbSymbolTable
70
1
0
STYLE
5
11
100
AcDbSymbolTableRecord
100
AcDbTextStyleTableRecord
2
STANDARD
70
0
0
ENDTAB
0
TABLE
2
VIEW
5
6
100
AcDbSymbolTable
70
0
0
ENDTAB
0
TABLE
2
UCS
5
7
100
AcDbSymbolTable
70
0
0
ENDTAB
0
TABLE
2
APPID
5
9
100
AcDbSymbolTable
70
2
0
APPID
5
12
100
AcDbSymbolTableRecord
100
AcDbRegAppTableRecord
2
ACAD
70
0
0
ENDTAB
0
TABLE
2
DIMSTYLE
5
A
100
AcDbSymbolTable
70
1
0
ENDTAB
0
TABLE
2
BLOCK_RECORD
5
1
100
AcDbSymbolTable
70
1
0
BLOCK_RECORD
5
1F
100
AcDbSymbolTableRecord
100
AcDbBlockTableRecord
2
*MODEL_SPACE
0
BLOCK_RECORD
5
1B
100
AcDbSymbolTableRecord
100
AcDbBlockTableRecord
2
*PAPER_SPACE
0
ENDTAB
0
ENDSEC
0
SECTION
2
BLOCKS
0
BLOCK
5
20
100
AcDbEntity
100
AcDbBlockBegin
2
*MODEL_SPACE
0
ENDBLK
5
21
100
AcDbEntity
100
AcDbBlockEnd
0
BLOCK
5
1C
100
AcDbEntity
100
AcDbBlockBegin
2
*PAPER_SPACE
0
ENDBLK
5
1D
100
AcDbEntity
100
AcDbBlockEnd
0
ENDSEC
0
SECTION
2
ENTITIES
0
CIRCLE
5
100
100
AcDbEntity
8
0
100
AcDbCircle
10
-114.30209805622215
20
121.12276641698826
30
0
40
1.2645
210
0
220
-0
230
1
0
CIRCLE
5
101
100
AcDbEntity
8
0
100
AcDbCircle
10
-19.302098056222157
20
121.12276641698826
30
0
40
1.2645
210
0
220
-0
230
1
0
CIRCLE
5
102
100
AcDbEntity
8
0
100
AcDbCircle
10
-209.30209805622215
20
121.12276641698826
30
0
40
1.2645
210
0
220
-0
230
1
0
CIRCLE
5
103
100
AcDbEntity
8
0
100
AcDbCircle
10
-114.30209805622212
20
-7.3897335830126911
30
0
40
1.2645
210
0
220
-0
230
1
0
CIRCLE
5
104
100
AcDbEntity
8
0
100
AcDbCircle
10
-209.30209805622212
20
-7.3897335830126911
30
0
40
1.2645
210
0
220
-0
230
1
0
CIRCLE
5
105
100
AcDbEntity
8
0
100
AcDbCircle
10
-19.302098056222121
20
-7.3897335830126911
30
0
40
1.2645
210
0
220
-0
230
1
0
LWPOLYLINE
5
106
100
AcDbEntity
8
0
100
AcDbPolyline
90
95
70
1
43
0.0
10
65.504151943777316
20
122.62276641698827
42
0.41421356237309193
10
63.004151943777309
20
125.12276641698826
10
-291.60834805622164
20
125.12276641698827
42
0.41421356237309709
10
-294.10834805622159
20
122.62276641698827
10
-294.10834805622159
20
-8.8897335830126956
42
0.41421356237310281
10
-291.60834805622159
20
-11.389733583012692
10
-4.6699560546869634
20
-11.389733583012699
10
-4.6699560546869723
20
-9.2900003433230314
10
-4.7186250855002232
20
-9.2900003433230367
42
-0.41421356237312495
10
-5.4799999237060604
20
-8.5286255051172599
10
-5.4799999237060177
20
-3.8897335830121351
10
-73.949096614628132
20
-3.8897335830122879
10
-78.217079115921024
20
-8.1577160848388193
42
-0.19891236758121419
10
-79.260061619323054
20
-8.5897335834559954
10
-80.302954837772518
20
-8.5897335832343558
10
-81.481042436826556
20
-8.5897335831977326
42
-0.34856179809245064
10
-85.210653676460225
20
-8.5897335830817934
10
-87.431634494222038
20
-8.5897335830127464
42
-0.19891236738317469
10
-88.474616996486262
20
-8.1577160852488682
10
-92.742599498366459
20
-3.8897335830123314
10
-159.67409661462901
20
-3.8897335830124815
10
-163.94207911592073
20
-8.1577160848388495
42
-0.19891236758121442
10
-164.98506161932286
20
-8.5897335834560433
10
-166.02795483777237
20
-8.5897335832343931
10
-167.20604243682669
20
-8.5897335831977362
42
-0.34856179809248306
10
-170.93565367646062
20
-8.5897335830817916
10
-173.15663449422181
20
-8.589733583012741
42
-0.19891236738313869
10
-174.19961699648599
20
-8.1577160852489108
10
-178.46759949836596
20
-3.8897335830125201
10
-245.39909661462872
20
-3.8897335830126698
10
-249.66707911592044
20
-8.1577160848388175
42
-0.19891236758121994
10
-250.7100616193226
20
-8.5897335834559954
10
-251.75295483777208
20
-8.589733583234354
10
-252.9310424368262
20
-8.5897335831977255
42
-0.3485617980925102
10
-256.6606536764603
20
-8.589733583081772
10
-258.88163449422166
20
-8.5897335830127179
42
-0.19891236738313256
10
-259.92461699648567
20
-8.1577160852488717
10
-264.1925994983655
20
-3.8897335830127129
10
-288.10834805622153
20
-3.8897335830127835
42
-0.4142135623730947
10
-289.10834805622153
20
-2.8897335830127702
10
-289.10834805622164
20
116.12276641698516
42
-0.41421356237309503
10
-288.1083480562217
20
117.12276641698516
10
-248.8296167132219
20
117.12276641698742
42
0.19891236739038926
10
-248.10483226247561
20
117.42298196630125
10
-245.6370653092855
20
119.89074891905111
42
-0.19891236736907156
10
-244.59408280728186
20
120.32276641672361
10
-243.55118958825182
20
120.3227664168555
10
-243.04601187797067
20
120.32276641686487
42
-0.5516772843770853
10
-237.97058086174314
20
120.32276641695876
10
-236.42250993222191
20
120.32276641698742
42
-0.19891236738605406
10
-235.37952742994634
20
119.89074891921219
10
-232.9117604772425
20
117.42298196613518
42
0.19891236737143064
10
-232.18697602637351
20
117.12276641698737
10
-82.142116713222379
20
117.12276641698745
42
0.19891236739043572
10
-81.417332262476236
20
117.42298196630134
10
-78.94956530928593
20
119.89074891905106
42
-0.1989123673690405
10
-77.90658280728249
20
120.32276641672355
10
-76.863689588252427
20
120.32276641685549
10
-76.358511877971168
20
120.32276641686482
42
-0.55167728437708285
10
-71.283080861743741
20
120.3227664169588
10
-69.735009932222411
20
120.32276641698743
42
-0.19891236738599175
10
-68.692027429946862
20
119.89074891921219
10
-66.224260477243106
20
117.42298196613538
42
0.19891236737132814
10
-65.499476026374097
20
117.12276641698793
10
13.107831599777384
20
117.12276641698742
42
0.19891236739047496
10
13.832616050523949
20
117.42298196630132
10
16.300383003713634
20
119.89074891905099
42
-0.19891236736909637
10
17.343365505717312
20
120.3227664167237
10
18.386258724747346
20
120.32276641685556
10
18.891436435028417
20
120.32276641686491
42
-0.55167728437707675
10
23.966867451255816
20
120.3227664169588
10
25.51493838077732
20
120.32276641698743
42
-0.19891236738596796
10
26.557920883052848
20
119.89074891921221
10
29.02568783575683
20
117.42298196613513
42
0.19891236737133164
10
29.750472286625254
20
117.12276641698722
10
59.504151943777188
20
117.12276641698742
42
-0.41421356237310025
10
60.504151943777202
20
116.12276641698742
10
60.504151943777401
20
-2.8897335830119886
42
-0.41421356237309664
10
59.504151943777401
20
-3.8897335830119939
10
49.875903385370748
20
-3.8897335830120126
10
45.607920884078567
20
-8.1577160848388104
42
-0.19891236758121453
10
44.564938380676544
20
-8.5897335834559829
10
43.522045162227045
20
-8.589733583234354
10
42.343957563172395
20
-8.5897335831977255
42
-0.34856179809241594
10
38.614346323539039
20
-8.5897335830817703
10
36.393365505777531
20
-8.5897335830127215
42
-0.19891236738315357
10
35.350383003513343
20
-8.1577160852488468
10
31.082400501632925
20
-3.8897335830120561
10
5.4799999237055586
20
-3.8897335830121111
10
5.4799999237060426
20
-8.5286255051171711
42
-0.41421356237310064
10
4.7186250855011647
20
-9.2900003433221965
10
4.6700439453129938
20
-9.2900003433222
10
4.6700439453129956
20
-11.389733583012699
10
63.004151943777309
20
-11.389733583012699
42
0.41421356237309453
10
65.504151943777316
20
-8.8897335830126956
0
ENDSEC
0
SECTION
2
OBJECTS
0
DICTIONARY
5
C
100
AcDbDictionary
3
ACAD_GROUP
350
D
3
ACAD_MLINESTYLE
350
17
0
DICTIONARY
5
D
100
AcDbDictionary
0
DICTIONARY
5
1A
330
C
100
AcDbDictionary
0
DICTIONARY
5
17
100
AcDbDictionary
0
ENDSEC
0
EOF
