0
SECTION
2
HEADER
9
$INSUNITS
70
4
9
$ACADVER
1
AC1014
9
$HANDSEED
5
FFFF
0
ENDSEC
0
SECTION
2
TABLES
0
TABLE
2
VPORT
5
8
100
AcDbSymbolTable
0
ENDTAB
0
TABLE
2
LTYPE
5
5
100
AcDbSymbolTable
0
LTYPE
5
14
100
AcDbSymbolTableRecord
100
AcDbLinetypeTableRecord
2
BYBLOCK
70
0
0
LTYPE
5
15
100
AcDbSymbolTableRecord
100
AcDbLinetypeTableRecord
2
BYLAYER
70
0
0
ENDTAB
0
TABLE
2
LAYER
5
2
100
AcDbSymbolTable
70
2
0
LAYER
5
50
100
AcDbSymbolTableRecord
100
AcDbLayerTableRecord
2
0
70
0
6
CONTINUOUS
0
ENDTAB
0
TABLE
2
STYLE
5
3
100
AcDbSymbolTable
70
1
0
STYLE
5
11
100
AcDbSymbolTableRecord
100
AcDbTextStyleTableRecord
2
STANDARD
70
0
0
ENDTAB
0
TABLE
2
VIEW
5
6
100
AcDbSymbolTable
70
0
0
ENDTAB
0
TABLE
2
UCS
5
7
100
AcDbSymbolTable
70
0
0
ENDTAB
0
TABLE
2
APPID
5
9
100
AcDbSymbolTable
70
2
0
APPID
5
12
100
AcDbSymbolTableRecord
100
AcDbRegAppTableRecord
2
ACAD
70
0
0
ENDTAB
0
TABLE
2
DIMSTYLE
5
A
100
AcDbSymbolTable
70
1
0
ENDTAB
0
TABLE
2
BLOCK_RECORD
5
1
100
AcDbSymbolTable
70
1
0
BLOCK_RECORD
5
1F
100
AcDbSymbolTableRecord
100
AcDbBlockTableRecord
2
*MODEL_SPACE
0
BLOCK_RECORD
5
1B
100
AcDbSymbolTableRecord
100
AcDbBlockTableRecord
2
*PAPER_SPACE
0
ENDTAB
0
ENDSEC
0
SECTION
2
BLOCKS
0
BLOCK
5
20
100
AcDbEntity
100
AcDbBlockBegin
2
*MODEL_SPACE
0
ENDBLK
5
21
100
AcDbEntity
100
AcDbBlockEnd
0
BLOCK
5
1C
100
AcDbEntity
100
AcDbBlockBegin
2
*PAPER_SPACE
0
ENDBLK
5
1D
100
AcDbEntity
100
AcDbBlockEnd
0
ENDSEC
0
SECTION
2
ENTITIES
0
LWPOLYLINE
5
100
100
AcDbEntity
8
0
100
AcDbPolyline
90
8
70
1
43
0.0
10
-24.454151943778726
20
80.07276641698725
42
0.41421356237307161
10
-23.954151943778722
20
80.572766416987264
10
-23.954151943778719
20
93.572766416987264
42
0.41421356237307161
10
-24.454151943778726
20
94.072766416987278
10
-37.454151943778697
20
94.072766416987278
42
0.41421356237307161
10
-37.954151943778704
20
93.572766416987264
10
-37.954151943778669
20
80.572766416987264
42
0.41421356237309764
10
-37.454151943778697
20
80.07276641698725
0
LWPOLYLINE
5
101
100
AcDbEntity
8
0
100
AcDbPolyline
90
8
70
1
43
0.0
10
31.10209805622123
20
99.622766416987275
42
0.41421356237307161
10
31.602098056221237
20
99.122766416987261
10
44.602098056221244
20
99.122766416987261
42
0.41421356237307944
10
45.102098056221251
20
99.622766416987275
10
45.102098056221251
20
112.62276641698726
42
0.41421356237310025
10
44.602098056221244
20
113.12276641698728
10
31.602098056221237
20
113.12276641698728
42
0.41421356237309243
10
31.10209805622123
20
112.62276641698726
0
LWPOLYLINE
5
102
100
AcDbEntity
8
0
100
AcDbPolyline
90
8
70
1
43
0.0
10
57.008348056221259
20
36.422766416987272
42
0.41421356237310025
10
56.508348056221251
20
36.922766416987265
10
43.508348056221244
20
36.922766416987272
42
0.41421356237308204
10
43.008348056221237
20
36.422766416987272
10
43.008348056221237
20
23.422766416987265
42
0.41421356237310281
10
43.508348056221244
20
22.922766416987269
10
56.508348056221251
20
22.922766416987269
42
0.41421356237309764
10
57.008348056221259
20
23.422766416987265
0
LWPOLYLINE
5
103
100
AcDbEntity
8
0
100
AcDbPolyline
90
8
70
1
43
0.0
10
21.289598056221237
20
112.62276641698726
10
21.289598056221269
20
99.622766416987275
42
-0.41421356237307161
10
20.789598056221266
20
99.122766416987261
10
7.7895980562212586
20
99.122766416987261
42
-0.41421356237307294
10
7.2895980562212515
20
99.622766416987275
10
7.2895980562212532
20
112.62276641698726
42
-0.4142135623730937
10
7.7895980562212586
20
113.12276641698728
10
20.789598056221266
20
113.12276641698723
42
-0.41421356237309764
0
LWPOLYLINE
5
104
100
AcDbEntity
8
0
100
AcDbPolyline
90
8
70
1
43
0.0
10
57.008348056221259
20
12.610266416987269
42
0.41421356237310542
10
56.508348056221251
20
13.110266416987276
10
43.508348056221244
20
13.110266416987265
42
0.41421356237309764
10
43.008348056221237
20
12.610266416987269
10
43.008348056221237
20
-0.38973358301273131
42
0.41421356237310342
10
43.508348056221244
20
-0.88973358301273842
10
56.508348056221251
20
-0.8897335830127312
42
0.41421356237309748
10
57.008348056221259
20
-0.3897335830127302
0
LWPOLYLINE
5
105
100
AcDbEntity
8
0
100
AcDbPolyline
90
8
70
1
43
0.0
10
33.983348056221239
20
55.972766416987277
10
46.983348056221246
20
55.972766416987284
42
-0.41421356237311585
10
47.483348056221253
20
55.472766416987284
10
47.483348056221246
20
42.47276641698727
42
-0.41421356237310542
10
46.983348056221246
20
41.972766416987277
10
33.983348056221239
20
41.972766416987255
42
-0.41421356237310025
10
33.483348056221232
20
42.47276641698727
10
33.483348056221239
20
55.472766416987284
42
-0.41421356237309764
0
LWPOLYLINE
5
106
100
AcDbEntity
8
0
100
AcDbPolyline
90
8
70
1
43
0.0
10
12.995348056221268
20
37.422766416987272
42
0.41421356237309503
10
12.49534805622126
20
37.92276641698728
10
6.4953480562212818
20
37.922766416987265
42
0.41421356237309631
10
5.9953480562212746
20
37.422766416987272
10
5.9953480562212746
20
23.422766416987265
42
0.41421356237309309
10
6.4953480562212818
20
22.922766416987269
10
12.49534805622126
20
22.922766416987269
42
0.41421356237309631
10
12.995348056221268
20
23.422766416987265
0
LWPOLYLINE
5
107
100
AcDbEntity
8
0
100
AcDbPolyline
90
8
70
1
43
0.0
10
7.2895980562212515
20
43.559766416987273
42
0.41421356237309764
10
7.7895980562212586
20
43.059766416987273
10
21.789598056221244
20
43.059766416987273
42
0.41421356237309503
10
22.289598056221251
20
43.559766416987273
10
22.289598056221251
20
49.559766416987273
42
0.41421356237310025
10
21.789598056221244
20
50.059766416987287
10
7.7895980562212586
20
50.059766416987273
42
0.41421356237309764
10
7.2895980562212515
20
49.559766416987273
0
LWPOLYLINE
5
108
100
AcDbEntity
8
0
100
AcDbPolyline
90
8
70
1
43
0.0
10
67.320848056221251
20
75.022766416987267
10
80.320848056221266
20
75.022766416987253
42
-0.41421356237310025
10
80.820848056221237
20
74.522766416987281
10
80.82084805622128
20
61.522766416987274
42
-0.41421356237308982
10
80.320848056221266
20
61.022766416987281
10
67.320848056221251
20
61.022766416987281
42
-0.41421356237311063
10
66.820848056221251
20
61.522766416987274
10
66.820848056221266
20
74.522766416987281
42
-0.41421356237310542
0
LWPOLYLINE
5
109
100
AcDbEntity
8
0
100
AcDbPolyline
90
8
70
1
43
0.0
10
91.133348056221237
20
13.110266416987271
42
0.41421356237309503
10
90.633348056221223
20
12.610266416987269
10
90.633348056221266
20
-0.38973358301273131
42
0.41421356237309664
10
91.133348056221237
20
-0.88973358301270289
10
104.13334805622125
20
-0.8897335830127312
42
0.41421356237310603
10
104.63334805622125
20
-0.3897335830127302
10
104.63334805622125
20
12.610266416987269
42
0.41421356237309631
10
104.13334805622125
20
13.110266416987271
0
LWPOLYLINE
5
110
100
AcDbEntity
8
0
100
AcDbPolyline
90
8
70
1
43
0.0
10
104.13334805622125
20
41.972766416987277
10
91.133348056221237
20
41.972766416987291
42
-0.41421356237310025
10
90.633348056221266
20
42.47276641698727
10
90.633348056221223
20
55.472766416987284
42
-0.41421356237310542
10
91.133348056221237
20
55.972766416987277
10
104.13334805622125
20
55.972766416987298
42
-0.41421356237310025
10
104.63334805622125
20
55.472766416987284
10
104.63334805622125
20
42.47276641698727
42
-0.41421356237310542
0
LWPOLYLINE
5
111
100
AcDbEntity
8
0
100
AcDbPolyline
90
8
70
1
43
0.0
10
105.42084805622125
20
75.022766416987267
42
0.41421356237310542
10
104.92084805622125
20
74.522766416987281
10
104.92084805622125
20
61.522766416987274
42
0.41421356237309503
10
105.42084805622125
20
61.022766416987267
10
118.42084805622125
20
61.022766416987281
42
0.41421356237308982
10
118.92084805622126
20
61.522766416987274
10
118.92084805622126
20
74.522766416987281
42
0.41421356237310025
10
118.42084805622125
20
75.022766416987267
0
LWPOLYLINE
5
112
100
AcDbEntity
8
0
100
AcDbPolyline
90
8
70
1
43
0.0
10
133.20834805622127
20
36.422766416987272
10
133.20834805622124
20
23.422766416987265
42
-0.41421356237310802
10
132.70834805622121
20
22.922766416987269
10
119.70834805622125
20
22.922766416987258
42
-0.41421356237309503
10
119.20834805622124
20
23.422766416987265
10
119.20834805622124
20
36.422766416987272
42
-0.41421356237309243
10
119.70834805622125
20
36.922766416987272
10
132.70834805622121
20
36.922766416987322
42
-0.41421356237310025
0
LWPOLYLINE
5
113
100
AcDbEntity
8
0
100
AcDbPolyline
90
8
70
1
43
0.0
10
228.45834805622127
20
12.610266416987269
42
0.41421356237309631
10
227.95834805622127
20
13.110266416987242
10
214.95834805622127
20
13.110266416987265
42
0.41421356237307683
10
214.45834805622127
20
12.610266416987269
10
214.45834805622127
20
-0.3897335830127302
42
0.41421356237313328
10
214.95834805622127
20
-0.88973358301273842
10
227.95834805622127
20
-0.8897335830127312
42
0.41421356237302581
10
228.45834805622127
20
-0.3897335830127302
0
LWPOLYLINE
5
114
100
AcDbEntity
8
0
100
AcDbPolyline
90
8
70
1
43
0.0
10
176.35834805622125
20
23.422766416987265
42
0.41421356237313406
10
176.85834805622125
20
22.922766416987265
10
189.85834805622125
20
22.922766416987269
42
0.41421356237305079
10
190.35834805622127
20
23.422766416987265
10
190.35834805622125
20
36.422766416987272
42
0.41421356237309764
10
189.85834805622125
20
36.922766416987272
10
176.85834805622125
20
36.922766416987272
42
0.41421356237313145
10
176.35834805622125
20
36.422766416987272
0
LWPOLYLINE
5
115
100
AcDbEntity
8
0
100
AcDbPolyline
90
8
70
1
43
0.0
10
112.06459805622129
20
99.622766416987275
10
112.06459805622124
20
112.62276641698726
42
-0.41421356237309503
10
112.56459805622126
20
113.12276641698728
10
125.56459805622126
20
113.12276641698728
42
-0.41421356237309503
10
126.06459805622126
20
112.62276641698726
10
126.06459805622126
20
99.622766416987275
42
-0.41421356237307422
10
125.56459805622126
20
99.122766416987261
10
112.56459805622126
20
99.122766416987304
42
-0.41421356237309503
0
LWPOLYLINE
5
116
100
AcDbEntity
8
0
100
AcDbPolyline
90
8
70
1
43
0.0
10
247.00834805622128
20
-0.8897335830127312
42
0.41421356237302526
10
247.50834805622128
20
-0.3897335830127302
10
247.50834805622128
20
12.610266416987269
42
0.41421356237309631
10
247.00834805622128
20
13.11026641698724
10
234.00834805622125
20
13.110266416987265
42
0.41421356237304563
10
233.50834805622128
20
12.610266416987269
10
233.50834805622128
20
-0.3897335830127302
42
0.41421356237309703
10
234.00834805622125
20
-0.8897335830127312
0
LWPOLYLINE
5
117
100
AcDbEntity
8
0
100
AcDbPolyline
90
8
70
1
43
0.0
10
189.85834805622125
20
-0.8897335830127312
10
176.85834805622125
20
-0.88973358301273231
42
-0.41421356237313306
10
176.35834805622125
20
-0.38973358301273131
10
176.35834805622122
20
12.610266416987269
42
-0.41421356237307683
10
176.85834805622125
20
13.110266416987265
10
189.85834805622125
20
13.110266416987253
42
-0.41421356237312362
10
190.35834805622127
20
12.610266416987269
10
190.35834805622125
20
-0.38973358301273014
42
-0.41421356237302581
0
LWPOLYLINE
5
118
100
AcDbEntity
8
0
100
AcDbPolyline
90
8
70
1
43
0.0
10
151.75834805622122
20
22.922766416987269
42
0.41421356237310802
10
152.25834805622125
20
23.422766416987265
10
152.25834805622128
20
36.422766416987272
42
0.41421356237310025
10
151.75834805622122
20
36.922766416987315
10
138.75834805622128
20
36.922766416987272
42
0.41421356237309243
10
138.25834805622125
20
36.422766416987272
10
138.25834805622125
20
23.422766416987265
42
0.41421356237309503
10
138.75834805622128
20
22.922766416987269
0
LWPOLYLINE
5
119
100
AcDbEntity
8
0
100
AcDbPolyline
90
8
70
1
43
0.0
10
245.41459805622125
20
99.622766416987275
10
245.41459805622134
20
112.62276641698726
42
-0.41421356237310542
10
245.91459805622128
20
113.12276641698728
10
258.91459805622128
20
113.12276641698723
42
-0.41421356237309503
10
259.41459805622122
20
112.62276641698726
10
259.41459805622128
20
99.622766416987275
42
-0.4142135623730846
10
258.91459805622128
20
99.122766416987261
10
245.91459805622128
20
99.122766416987233
42
-0.41421356237309503
0
LWPOLYLINE
5
120
100
AcDbEntity
8
0
100
AcDbPolyline
90
8
70
1
43
0.0
10
256.53334805622126
20
41.972766416987277
42
0.4142135623730222
10
257.0333480562212
20
42.47276641698727
10
257.03334805622126
20
55.472766416987284
42
0.4142135623730534
10
256.53334805622126
20
55.972766416987326
10
243.53334805622126
20
55.972766416987277
42
0.4142135623730222
10
243.03334805622129
20
55.472766416987284
10
243.03334805622129
20
42.47276641698727
42
0.41421356237310025
10
243.53334805622126
20
41.972766416987277
0
LWPOLYLINE
5
121
100
AcDbEntity
8
0
100
AcDbPolyline
90
8
70
1
43
0.0
10
213.67084805622127
20
61.022766416987281
10
200.67084805622125
20
61.022766416987295
42
-0.41421356237310025
10
200.17084805622125
20
61.522766416987274
10
200.17084805622125
20
74.522766416987281
42
-0.4142135623730222
10
200.67084805622125
20
75.022766416987267
10
213.67084805622127
20
75.022766416987253
42
-0.41421356237310025
10
214.17084805622125
20
74.522766416987281
10
214.17084805622125
20
61.522766416987274
42
-0.4142135623730222
0
LWPOLYLINE
5
122
100
AcDbEntity
8
0
100
AcDbPolyline
90
8
70
1
43
0.0
10
195.12084805622126
20
74.522766416987281
42
0.41421356237312623
10
194.62084805622126
20
75.022766416987267
10
181.62084805622126
20
75.022766416987267
42
0.41421356237307422
10
181.12084805622123
20
74.522766416987281
10
181.12084805622123
20
61.522766416987274
42
0.41421356237313145
10
181.62084805622126
20
61.022766416987267
10
194.62084805622126
20
61.022766416987281
42
0.4142135623730222
10
195.12084805622126
20
61.522766416987274
0
LWPOLYLINE
5
123
100
AcDbEntity
8
0
100
AcDbPolyline
90
8
70
1
43
0.0
10
264.96459805622123
20
75.022766416987267
42
0.4142135623730222
10
264.46459805622123
20
74.522766416987281
10
264.46459805622123
20
61.522766416987274
42
0.41421356237310025
10
264.96459805622123
20
61.022766416987302
10
282.72709805622128
20
61.022766416987281
42
0.4142135623730222
10
283.22709805622128
20
61.522766416987274
10
283.22709805622128
20
74.522766416987281
42
0.41421356237310025
10
282.72709805622128
20
75.022766416987267
0
LWPOLYLINE
5
124
100
AcDbEntity
8
0
100
AcDbPolyline
90
8
70
1
43
0.0
10
114.94584805622125
20
94.072766416987278
10
127.94584805622125
20
94.072766416987278
42
-0.41421356237307422
10
128.44584805622128
20
93.572766416987264
10
128.44584805622128
20
80.572766416987264
42
-0.41421356237307422
10
127.94584805622125
20
80.07276641698725
10
114.94584805622125
20
80.07276641698725
42
-0.41421356237307422
10
114.44584805622125
20
80.572766416987264
10
114.44584805622125
20
93.572766416987264
42
-0.41421356237307422
0
LWPOLYLINE
5
125
100
AcDbEntity
8
0
100
AcDbPolyline
90
8
70
1
43
0.0
10
232.72084805622129
20
61.022766416987281
10
219.72084805622129
20
61.022766416987281
42
-0.41421356237313145
10
219.22084805622126
20
61.522766416987274
10
219.22084805622123
20
74.522766416987281
42
-0.41421356237307422
10
219.72084805622129
20
75.022766416987267
10
232.72084805622129
20
75.022766416987253
42
-0.41421356237310025
10
233.22084805622126
20
74.522766416987281
10
233.22084805622126
20
61.522766416987274
42
-0.4142135623730222
0
LWPOLYLINE
5
126
100
AcDbEntity
8
0
100
AcDbPolyline
90
8
70
1
43
0.0
10
201.76459805622125
20
99.122766416987261
10
188.76459805622125
20
99.122766416987275
42
-0.4142135623730846
10
188.26459805622125
20
99.622766416987275
10
188.2645980562213
20
112.62276641698726
42
-0.41421356237310542
10
188.76459805622125
20
113.12276641698728
10
201.76459805622125
20
113.12276641698729
42
-0.4142135623730846
10
202.26459805622127
20
112.62276641698726
10
202.26459805622127
20
99.622766416987275
42
-0.4142135623730846
0
LWPOLYLINE
5
127
100
AcDbEntity
8
0
100
AcDbPolyline
90
8
70
1
43
0.0
10
28.720848056221229
20
61.522766416987274
10
28.720848056221232
20
74.522766416987281
42
-0.41421356237309764
10
29.220848056221236
20
75.022766416987267
10
42.220848056221243
20
75.022766416987281
42
-0.41421356237311585
10
42.72084805622125
20
74.522766416987281
10
42.720848056221243
20
61.522766416987274
42
-0.41421356237309503
10
42.220848056221243
20
61.022766416987281
10
29.220848056221236
20
61.022766416987267
42
-0.41421356237309503
0
LWPOLYLINE
5
128
100
AcDbEntity
8
0
100
AcDbPolyline
90
8
70
1
43
0.0
10
224.48334805622125
20
55.972766416987277
42
0.4142135623730222
10
223.98334805622127
20
55.472766416987284
10
223.98334805622127
20
42.47276641698727
42
0.41421356237310025
10
224.48334805622125
20
41.972766416987298
10
237.4833480562213
20
41.972766416987277
42
0.4142135623730222
10
237.98334805622125
20
42.47276641698727
10
237.98334805622125
20
55.472766416987284
42
0.41421356237310025
10
237.4833480562213
20
55.972766416987277
0
LWPOLYLINE
5
129
100
AcDbEntity
8
0
100
AcDbPolyline
90
8
70
1
43
0.0
10
123.68334805622126
20
12.610266416987269
42
0.41421356237309631
10
123.18334805622126
20
13.110266416987278
10
110.18334805622129
20
13.110266416987265
42
0.41421356237310414
10
109.68334805622128
20
12.610266416987269
10
109.68334805622128
20
-0.3897335830127302
42
0.41421356237309476
10
110.18334805622129
20
-0.8897335830127312
10
123.18334805622126
20
-0.8897335830127312
42
0.41421356237310603
10
123.68334805622126
20
-0.3897335830127302
0
LWPOLYLINE
5
130
100
AcDbEntity
8
0
100
AcDbPolyline
90
8
70
1
43
0.0
10
161.28334805622126
20
-0.8897335830127312
42
0.41421356237302526
10
161.7833480562212
20
-0.3897335830127302
10
161.78334805622129
20
12.610266416987269
42
0.41421356237306123
10
161.28334805622126
20
13.110266416987271
10
148.28334805622126
20
13.110266416987271
42
0.41421356237309503
10
147.78334805622126
20
12.610266416987269
10
147.78334805622126
20
-0.38973358301273131
42
0.41421356237309453
10
148.28334805622126
20
-0.8897335830127312
0
LWPOLYLINE
5
131
100
AcDbEntity
8
0
100
AcDbPolyline
90
8
70
1
43
0.0
10
210.70259805622126
20
113.62276641698726
10
210.70259805622129
20
99.622766416987275
42
-0.4142135623730846
10
210.20259805622123
20
99.122766416987261
10
204.20259805622123
20
99.122766416987304
42
-0.41421356237309503
10
203.70259805622126
20
99.622766416987275
10
203.70259805622118
20
113.62276641698726
42
-0.4142135623730846
10
204.20259805622123
20
114.12276641698726
10
210.20259805622123
20
114.12276641698725
42
-0.4142135623730846
0
LWPOLYLINE
5
132
100
AcDbEntity
8
0
100
AcDbPolyline
90
8
70
1
43
0.0
10
185.88334805622125
20
42.47276641698727
42
0.41421356237313667
10
186.38334805622125
20
41.97276641698727
10
199.38334805622128
20
41.972766416987277
42
0.4142135623730222
10
199.88334805622128
20
42.47276641698727
10
199.88334805622128
20
55.472766416987284
42
0.41421356237312623
10
199.38334805622128
20
55.972766416987277
10
186.38334805622125
20
55.972766416987277
42
0.41421356237307422
10
185.88334805622125
20
55.472766416987284
0
LWPOLYLINE
5
133
100
AcDbEntity
8
0
100
AcDbPolyline
90
8
70
1
43
0.0
10
208.90834805622126
20
-0.8897335830127312
42
0.41421356237302526
10
209.40834805622126
20
-0.3897335830127302
10
209.40834805622129
20
12.610266416987269
42
0.41421356237312362
10
208.90834805622126
20
13.110266416987276
10
195.90834805622126
20
13.110266416987265
42
0.41421356237307683
10
195.40834805622126
20
12.610266416987269
10
195.40834805622126
20
-0.38973358301273131
42
0.41421356237313306
10
195.90834805622126
20
-0.8897335830127312
0
LWPOLYLINE
5
134
100
AcDbEntity
8
0
100
AcDbPolyline
90
8
70
1
43
0.0
10
161.78334805622129
20
55.472766416987284
10
161.7833480562212
20
42.47276641698727
42
-0.4142135623730222
10
161.28334805622126
20
41.972766416987277
10
148.28334805622126
20
41.972766416987255
42
-0.41421356237310025
10
147.78334805622126
20
42.47276641698727
10
147.78334805622126
20
55.472766416987284
42
-0.41421356237310542
10
148.28334805622126
20
55.972766416987277
10
161.28334805622126
20
55.972766416987326
42
-0.4142135623730534
0
LWPOLYLINE
5
135
100
AcDbEntity
8
0
100
AcDbPolyline
90
8
70
1
43
0.0
10
242.74584805622126
20
93.572766416987264
10
242.74584805622126
20
80.572766416987264
42
-0.41421356237307422
10
242.24584805622129
20
80.072766416987264
10
229.24584805622123
20
80.072766416987292
42
-0.41421356237309503
10
228.74584805622129
20
80.572766416987264
10
228.74584805622121
20
93.572766416987264
42
-0.4142135623730846
10
229.24584805622123
20
94.072766416987278
10
242.24584805622129
20
94.072766416987236
42
-0.41421356237309503
0
LWPOLYLINE
5
136
100
AcDbEntity
8
0
100
AcDbPolyline
90
8
70
1
43
0.0
10
282.72709805622128
20
99.122766416987261
42
0.4142135623730846
10
283.22709805622134
20
99.622766416987275
10
283.22709805622128
20
112.62276641698726
42
0.41421356237309503
10
282.72709805622128
20
113.12276641698728
10
269.72709805622122
20
113.12276641698728
42
0.41421356237310542
10
269.22709805622117
20
112.62276641698726
10
269.22709805622128
20
99.622766416987275
42
0.41421356237309503
10
269.72709805622122
20
99.122766416987261
0
LWPOLYLINE
5
137
100
AcDbEntity
8
0
100
AcDbPolyline
90
8
70
1
43
0.0
10
238.27084805622127
20
61.522766416987274
42
0.41421356237310025
10
238.77084805622127
20
61.022766416987295
10
251.7708480562213
20
61.022766416987281
42
0.4142135623730222
10
252.27084805622127
20
61.522766416987274
10
252.27084805622127
20
74.522766416987281
42
0.41421356237310025
10
251.7708480562213
20
75.022766416987253
10
238.77084805622127
20
75.022766416987267
42
0.4142135623730222
10
238.27084805622127
20
74.522766416987281
0
LWPOLYLINE
5
138
100
AcDbEntity
8
0
100
AcDbPolyline
90
8
70
1
43
0.0
10
76.058348056221263
20
12.610266416987269
42
0.41421356237310542
10
75.558348056221263
20
13.110266416987276
10
62.558348056221256
20
13.110266416987271
42
0.41421356237308982
10
62.058348056221249
20
12.610266416987269
10
62.058348056221249
20
-0.3897335830127302
42
0.41421356237310364
10
62.558348056221256
20
-0.88973358301273842
10
75.558348056221263
20
-0.8897335830127312
42
0.41421356237309748
10
76.058348056221263
20
-0.3897335830127302
0
LWPOLYLINE
5
139
100
AcDbEntity
8
0
100
AcDbPolyline
90
8
70
1
43
0.0
10
37.45834805622124
20
-0.8897335830127312
42
0.41421356237309553
10
37.95834805622124
20
-0.3897335830127302
10
37.958348056221247
20
12.610266416987269
42
0.41421356237309243
10
37.45834805622124
20
13.110266416987276
10
24.458348056221233
20
13.110266416987265
42
0.41421356237309631
10
23.958348056221226
20
12.610266416987269
10
23.958348056221226
20
-0.38973358301273131
42
0.41421356237309115
10
24.458348056221233
20
-0.8897335830127312
0
LWPOLYLINE
5
140
100
AcDbEntity
8
0
100
AcDbPolyline
90
8
70
1
43
0.0
10
72.083348056221226
20
55.972766416987277
42
0.41421356237310542
10
71.583348056221226
20
55.472766416987284
10
71.583348056221212
20
42.47276641698727
42
0.41421356237311585
10
72.083348056221226
20
41.972766416987277
10
85.08334805622124
20
41.972766416987277
42
0.41421356237310542
10
85.58334805622124
20
42.47276641698727
10
85.58334805622124
20
55.472766416987284
42
0.41421356237310025
10
85.08334805622124
20
55.972766416987277
0
LWPOLYLINE
5
141
100
AcDbEntity
8
0
100
AcDbPolyline
90
8
70
1
43
0.0
10
-56.504151943778709
20
113.12276641698728
42
0.41421356237310025
10
-57.004151943778723
20
112.62276641698726
10
-57.004151943778751
20
99.622766416987275
42
0.41421356237310542
10
-56.504151943778709
20
99.122766416987261
10
-43.504151943778737
20
99.122766416987261
42
0.41421356237307944
10
-43.00415194377873
20
99.622766416987275
10
-43.004151943778766
20
112.62276641698726
42
0.41421356237310025
10
-43.504151943778737
20
113.12276641698728
0
LWPOLYLINE
5
142
100
AcDbEntity
8
0
100
AcDbPolyline
90
8
70
1
43
0.0
10
14.433348056221256
20
23.422766416987265
42
0.41421356237309503
10
14.933348056221263
20
22.922766416987258
10
27.93334805622127
20
22.922766416987269
42
0.41421356237309503
10
28.433348056221277
20
23.422766416987265
10
28.433348056221277
20
36.422766416987272
42
0.41421356237308982
10
27.93334805622127
20
36.922766416987272
10
14.933348056221263
20
36.922766416987272
42
0.41421356237309503
10
14.433348056221256
20
36.422766416987272
0
LWPOLYLINE
5
143
100
AcDbEntity
8
0
100
AcDbPolyline
90
8
70
1
43
0.0
10
95.108348056221246
20
36.422766416987272
10
95.108348056221246
20
23.422766416987265
42
-0.41421356237310802
10
94.608348056221246
20
22.922766416987269
10
81.608348056221232
20
22.92276641698729
42
-0.41421356237309764
10
81.10834805622126
20
23.422766416987265
10
81.108348056221217
20
36.422766416987272
42
-0.41421356237309243
10
81.608348056221232
20
36.922766416987272
10
94.608348056221246
20
36.922766416987272
42
-0.41421356237309243
0
LWPOLYLINE
5
144
100
AcDbEntity
8
0
100
AcDbPolyline
90
8
70
1
43
0.0
10
61.770848056221226
20
74.522766416987281
10
61.770848056221254
20
61.522766416987274
42
-0.41421356237309503
10
61.270848056221254
20
61.022766416987281
10
48.270848056221247
20
61.022766416987281
42
-0.41421356237311063
10
47.77084805622124
20
61.522766416987274
10
47.770848056221247
20
74.522766416987281
42
-0.41421356237310542
10
48.270848056221247
20
75.022766416987267
10
61.270848056221254
20
75.022766416987253
42
-0.41421356237310542
0
LWPOLYLINE
5
145
100
AcDbEntity
8
0
100
AcDbPolyline
90
8
70
1
43
0.0
10
4.9083480562212145
20
-0.3897335830127302
42
0.41421356237309687
10
5.4083480562212216
20
-0.88973358301273819
10
18.408348056221229
20
-0.8897335830127312
42
0.41421356237309509
10
18.908348056221236
20
-0.3897335830127302
10
18.908348056221236
20
12.610266416987269
42
0.41421356237310025
10
18.408348056221229
20
13.110266416987276
10
5.4083480562212216
20
13.110266416987271
42
0.41421356237309243
10
4.9083480562212145
20
12.610266416987269
0
LWPOLYLINE
5
146
100
AcDbEntity
8
0
100
AcDbPolyline
90
8
70
1
43
0.0
10
-57.00415194377868
20
23.422766416987265
42
0.41421356237310281
10
-56.504151943778709
20
22.922766416987301
10
-43.504151943778737
20
22.922766416987269
42
0.41421356237309764
10
-43.004151943778737
20
23.422766416987265
10
-43.004151943778766
20
36.422766416987272
42
0.41421356237310281
10
-43.504151943778737
20
36.922766416987244
10
-56.504151943778709
20
36.922766416987272
42
0.41421356237308204
10
-57.00415194377868
20
36.422766416987272
0
LWPOLYLINE
5
147
100
AcDbEntity
8
0
100
AcDbPolyline
90
8
70
1
43
0.0
10
68.414598056221251
20
99.122766416987261
42
0.414213562373069
10
68.91459805622128
20
99.622766416987247
10
68.914598056221266
20
112.62276641698726
42
0.41421356237310025
10
68.414598056221251
20
113.12276641698728
10
55.414598056221251
20
113.12276641698728
42
0.41421356237310025
10
54.914598056221244
20
112.62276641698726
10
54.914598056221244
20
99.622766416987275
42
0.41421356237307944
10
55.414598056221251
20
99.122766416987261
0
LWPOLYLINE
5
148
100
AcDbEntity
8
0
100
AcDbPolyline
90
8
70
1
43
0.0
10
7.7895980562212586
20
65.497766416987261
42
0.41421356237309764
10
7.2895980562212559
20
64.997766416987275
10
7.2895980562212515
20
51.997766416987275
42
0.41421356237310281
10
7.7895980562212586
20
51.497766416987282
10
20.789598056221266
20
51.497766416987282
42
0.41421356237309764
10
21.289598056221273
20
51.997766416987275
10
21.289598056221237
20
64.997766416987275
42
0.41421356237310281
10
20.789598056221266
20
65.497766416987261
0
LWPOLYLINE
5
149
100
AcDbEntity
8
0
100
AcDbPolyline
90
8
70
1
43
0.0
10
113.65834805622126
20
22.922766416987269
10
100.65834805622129
20
22.922766416987258
42
-0.41421356237309503
10
100.15834805622127
20
23.422766416987265
10
100.15834805622127
20
36.422766416987272
42
-0.41421356237309243
10
100.65834805622129
20
36.922766416987272
10
113.65834805622126
20
36.922766416987272
42
-0.41421356237309243
10
114.15834805622126
20
36.422766416987272
10
114.15834805622126
20
23.422766416987265
42
-0.41421356237310802
0
LWPOLYLINE
5
150
100
AcDbEntity
8
0
100
AcDbPolyline
90
14
70
1
43
0.0
10
45.102098056221251
20
93.572766416987264
42
0.41421356237307944
10
44.602098056221244
20
94.072766416987264
10
44.015098056221262
20
94.072766416987278
10
44.015098056221262
20
94.572766416987264
42
0.41421356237310025
10
43.515098056221255
20
95.072766416987264
10
37.515098056221277
20
95.072766416987264
42
0.41421356237309243
10
37.015098056221269
20
94.572766416987264
10
37.015098056221269
20
94.072766416987278
10
22.077098056221267
20
94.072766416987278
42
0.41421356237307161
10
21.57709805622126
20
93.572766416987264
10
21.57709805622126
20
80.572766416987264
42
0.41421356237307161
10
22.077098056221267
20
80.07276641698725
10
44.602098056221244
20
80.072766416987264
42
0.41421356237309503
10
45.102098056221251
20
80.572766416987264
0
LWPOLYLINE
5
151
100
AcDbEntity
8
0
100
AcDbPolyline
90
8
70
1
43
0.0
10
-24.454151943778726
20
41.972766416987277
10
-37.454151943778697
20
41.972766416987227
42
-0.41421356237308721
10
-37.95415194377874
20
42.47276641698727
10
-37.954151943778697
20
55.472766416987284
42
-0.41421356237309764
10
-37.454151943778697
20
55.972766416987277
10
-24.454151943778726
20
55.972766416987298
42
-0.41421356237310025
10
-23.954151943778719
20
55.472766416987284
10
-23.954151943778722
20
42.47276641698727
42
-0.41421356237309764
0
LWPOLYLINE
5
152
100
AcDbEntity
8
0
100
AcDbPolyline
90
8
70
1
43
0.0
10
36.371348056221251
20
22.922766416987269
42
0.41421356237309503
10
36.871348056221251
20
23.422766416987265
10
36.871348056221258
20
37.422766416987272
42
0.41421356237309243
10
36.371348056221251
20
37.92276641698728
10
30.371348056221237
20
37.922766416987265
42
0.41421356237309503
10
29.87134805622123
20
37.422766416987272
10
29.87134805622123
20
23.422766416987265
42
0.41421356237309243
10
30.371348056221237
20
22.922766416987269
0
LWPOLYLINE
5
153
100
AcDbEntity
8
0
100
AcDbPolyline
90
8
70
1
43
0.0
10
-23.954151943778719
20
12.610266416987269
10
-23.954151943778726
20
-0.38973358301273014
42
-0.41421356237309614
10
-24.454151943778726
20
-0.8897335830127312
10
-37.454151943778697
20
-0.88973358301276995
42
-0.41421356237309792
10
-37.95415194377874
20
-0.38973358301273131
10
-37.954151943778697
20
12.610266416987269
42
-0.41421356237309503
10
-37.454151943778697
20
13.110266416987271
10
-24.454151943778726
20
13.11026641698728
42
-0.41421356237309243
0
LWPOLYLINE
5
154
100
AcDbEntity
8
0
100
AcDbPolyline
90
8
70
1
43
0.0
10
110.12659805622124
20
99.122766416987261
42
0.41421356237307422
10
110.62659805622125
20
99.622766416987275
10
110.62659805622125
20
113.62276641698726
42
0.41421356237307422
10
110.12659805622124
20
114.12276641698726
10
104.12659805622124
20
114.12276641698726
42
0.41421356237307422
10
103.62659805622123
20
113.62276641698726
10
103.62659805622123
20
99.622766416987275
42
0.41421356237307422
10
104.12659805622124
20
99.122766416987261
0
LWPOLYLINE
5
155
100
AcDbEntity
8
0
100
AcDbPolyline
90
8
70
1
43
0.0
10
-4.9041519437787784
20
112.62276641698726
10
-4.9041519437787802
20
99.622766416987275
42
-0.41421356237307294
10
-5.4041519437787855
20
99.122766416987261
10
-18.404151943778757
20
99.122766416987261
42
-0.41421356237307555
10
-18.904151943778764
20
99.622766416987275
10
-18.904151943778768
20
112.62276641698726
42
-0.41421356237309631
10
-18.404151943778757
20
113.12276641698728
10
-5.4041519437787855
20
113.12276641698728
42
-0.4142135623730937
0
LWPOLYLINE
5
156
100
AcDbEntity
8
0
100
AcDbPolyline
90
11
70
1
43
0.0
10
19.639098056221229
20
80.07276641698725
42
0.41421356237307555
10
20.139098056221236
20
80.572766416987264
10
20.139098056221236
20
94.572766416987264
42
0.41421356237309631
10
19.639098056221229
20
95.072766416987264
10
13.639098056221215
20
95.072766416987264
42
0.41421356237309631
10
13.139098056221208
20
94.572766416987264
10
13.139098056221243
20
94.072766416987278
10
5.4083480562212216
20
94.072766416987278
42
0.41421356237307294
10
4.9083480562212145
20
93.572766416987264
10
4.9083480562212145
20
80.572766416987264
42
0.41421356237307294
10
5.4083480562212216
20
80.07276641698725
0
LWPOLYLINE
5
157
100
AcDbEntity
8
0
100
AcDbPolyline
90
8
70
1
43
0.0
10
90.345848056221286
20
93.572766416987264
42
0.41421356237307422
10
89.845848056221271
20
94.072766416987278
10
76.845848056221257
20
94.072766416987278
42
0.41421356237307944
10
76.345848056221257
20
93.572766416987264
10
76.345848056221257
20
80.572766416987264
42
0.41421356237307944
10
76.845848056221257
20
80.07276641698725
10
89.845848056221271
20
80.07276641698725
42
0.41421356237307422
10
90.345848056221286
20
80.572766416987264
0
LWPOLYLINE
5
158
100
AcDbEntity
8
0
100
AcDbPolyline
90
8
70
1
43
0.0
10
62.058348056221249
20
23.422766416987265
10
62.058348056221249
20
36.422766416987272
42
-0.41421356237308204
10
62.558348056221256
20
36.922766416987272
10
75.558348056221263
20
36.922766416987265
42
-0.41421356237310025
10
76.058348056221263
20
36.422766416987272
10
76.058348056221249
20
23.422766416987265
42
-0.41421356237309764
10
75.558348056221263
20
22.922766416987269
10
62.558348056221256
20
22.922766416987265
42
-0.41421356237310281
0
LWPOLYLINE
5
159
100
AcDbEntity
8
0
100
AcDbPolyline
90
8
70
1
43
0.0
10
57.295848056221246
20
80.572766416987264
42
0.41421356237307944
10
57.795848056221253
20
80.072766416987264
10
70.79584805622126
20
80.072766416987264
42
0.41421356237309503
10
71.295848056221274
20
80.572766416987264
10
71.295848056221274
20
93.572766416987264
42
0.41421356237307944
10
70.79584805622126
20
94.072766416987278
10
57.795848056221253
20
94.072766416987278
42
0.41421356237307944
10
57.295848056221246
20
93.572766416987264
0
LWPOLYLINE
5
160
100
AcDbEntity
8
0
100
AcDbPolyline
90
8
70
1
43
0.0
10
210.19584805622128
20
94.072766416987278
10
223.19584805622128
20
94.072766416987236
42
-0.41421356237309503
10
223.69584805622125
20
93.572766416987264
10
223.69584805622125
20
80.572766416987264
42
-0.41421356237307422
10
223.19584805622128
20
80.072766416987264
10
210.19584805622128
20
80.07276641698725
42
-0.41421356237309503
10
209.69584805622128
20
80.572766416987264
10
209.69584805622128
20
93.572766416987264
42
-0.41421356237309503
0
LWPOLYLINE
5
161
100
AcDbEntity
8
0
100
AcDbPolyline
90
8
70
1
43
0.0
10
157.02084805622124
20
74.522766416987281
42
0.41421356237310025
10
156.52084805622124
20
75.022766416987295
10
143.52084805622127
20
75.022766416987267
42
0.41421356237310542
10
143.02084805622127
20
74.522766416987281
10
143.02084805622121
20
61.522766416987274
42
0.41421356237310025
10
143.52084805622127
20
61.022766416987281
10
156.52084805622124
20
61.022766416987281
42
0.41421356237308982
10
157.02084805622124
20
61.522766416987274
0
LWPOLYLINE
5
162
100
AcDbEntity
8
0
100
AcDbPolyline
90
8
70
1
43
0.0
10
142.23334805622125
20
-0.8897335830127312
42
0.41421356237310542
10
142.73334805622125
20
-0.3897335830127302
10
142.73334805622127
20
12.610266416987269
42
0.41421356237310025
10
142.23334805622125
20
13.110266416987312
10
129.23334805622125
20
13.110266416987271
42
0.41421356237309503
10
128.73334805622125
20
12.610266416987269
10
128.73334805622125
20
-0.3897335830127302
42
0.41421356237309476
10
129.23334805622125
20
-0.8897335830127312
0
LWPOLYLINE
5
163
100
AcDbEntity
8
0
100
AcDbPolyline
90
8
70
1
43
0.0
10
266.55834805622129
20
36.422766416987272
10
266.55834805622123
20
23.422766416987265
42
-0.41421356237305079
10
266.05834805622123
20
22.922766416987269
10
253.05834805622126
20
22.92276641698729
42
-0.41421356237309764
10
252.55834805622129
20
23.422766416987265
10
252.55834805622123
20
36.422766416987272
42
-0.41421356237312101
10
253.05834805622126
20
36.922766416987272
10
266.05834805622123
20
36.922766416987329
42
-0.41421356237306384
0
LWPOLYLINE
5
164
100
AcDbEntity
8
0
100
AcDbPolyline
90
8
70
1
43
0.0
10
283.22709805622128
20
93.572766416987264
10
283.22709805622128
20
80.572766416987264
42
-0.41421356237307422
10
282.72709805622128
20
80.072766416987264
10
269.72709805622122
20
80.072766416987292
42
-0.41421356237309503
10
269.22709805622128
20
80.572766416987264
10
269.22709805622117
20
93.572766416987264
42
-0.4142135623730846
10
269.72709805622122
20
94.072766416987278
10
282.72709805622128
20
94.072766416987236
42
-0.41421356237309503
0
LWPOLYLINE
5
165
100
AcDbEntity
8
0
100
AcDbPolyline
90
8
70
1
43
0.0
10
221.60209805622128
20
99.622766416987275
42
0.4142135623730846
10
222.10209805622128
20
99.122766416987275
10
235.10209805622125
20
99.122766416987261
42
0.4142135623730846
10
235.60209805622122
20
99.622766416987275
10
235.60209805622122
20
112.62276641698726
42
0.41421356237309503
10
235.10209805622125
20
113.12276641698723
10
222.10209805622128
20
113.12276641698728
42
0.41421356237310542
10
221.60209805622128
20
112.62276641698726
0
LWPOLYLINE
5
166
100
AcDbEntity
8
0
100
AcDbPolyline
90
8
70
1
43
0.0
10
280.84584805622126
20
55.472766416987284
42
0.4142135623730534
10
280.34584805622126
20
55.972766416987326
10
267.34584805622126
20
55.972766416987277
42
0.4142135623730222
10
266.84584805622126
20
55.472766416987284
10
266.84584805622126
20
42.47276641698727
42
0.4142135623730534
10
267.34584805622126
20
41.972766416987227
10
280.34584805622126
20
41.972766416987277
42
0.4142135623730222
10
280.84584805622126
20
42.47276641698727
0
LWPOLYLINE
5
167
100
AcDbEntity
8
0
100
AcDbPolyline
90
8
70
1
43
0.0
10
95.39584805622124
20
80.572766416987264
10
95.39584805622124
20
93.572766416987264
42
-0.41421356237307422
10
95.89584805622124
20
94.072766416987278
10
108.89584805622124
20
94.072766416987278
42
-0.41421356237307422
10
109.39584805622125
20
93.572766416987264
10
109.39584805622125
20
80.572766416987264
42
-0.41421356237312623
10
108.89584805622124
20
80.072766416987264
10
95.89584805622124
20
80.07276641698725
42
-0.41421356237307422
0
LWPOLYLINE
5
168
100
AcDbEntity
8
0
100
AcDbPolyline
90
8
70
1
43
0.0
10
285.6083480562213
20
36.422766416987272
10
285.60834805622125
20
23.422766416987265
42
-0.41421356237305079
10
285.10834805622125
20
22.922766416987269
10
272.1083480562213
20
22.92276641698729
42
-0.41421356237309764
10
271.6083480562213
20
23.422766416987265
10
271.60834805622125
20
36.422766416987272
42
-0.41421356237312101
10
272.1083480562213
20
36.922766416987272
10
285.10834805622125
20
36.922766416987329
42
-0.41421356237306384
0
LWPOLYLINE
5
169
100
AcDbEntity
8
0
100
AcDbPolyline
90
8
70
1
43
0.0
10
233.50834805622128
20
23.422766416987265
42
0.41421356237309764
10
234.00834805622125
20
22.92276641698729
10
247.00834805622128
20
22.922766416987269
42
0.41421356237305079
10
247.50834805622128
20
23.422766416987265
10
247.50834805622128
20
36.422766416987272
42
0.41421356237309764
10
247.00834805622128
20
36.922766416987272
10
234.00834805622125
20
36.922766416987272
42
0.41421356237312101
10
233.50834805622128
20
36.422766416987272
0
LWPOLYLINE
5
170
100
AcDbEntity
8
0
100
AcDbPolyline
90
8
70
1
43
0.0
10
171.30834805622126
20
36.422766416987272
42
0.41421356237310025
10
170.80834805622123
20
36.922766416987287
10
157.80834805622129
20
36.922766416987272
42
0.41421356237309243
10
157.30834805622126
20
36.422766416987272
10
157.30834805622126
20
23.422766416987265
42
0.41421356237309503
10
157.80834805622129
20
22.922766416987258
10
170.80834805622123
20
22.922766416987269
42
0.41421356237305079
10
171.30834805622126
20
23.422766416987265
0
LWPOLYLINE
5
171
100
AcDbEntity
8
0
100
AcDbPolyline
90
8
70
1
43
0.0
10
123.97084805622126
20
61.522766416987274
10
123.97084805622126
20
74.522766416987281
42
-0.41421356237310542
10
124.47084805622126
20
75.022766416987267
10
137.47084805622126
20
75.022766416987295
42
-0.41421356237310025
10
137.97084805622126
20
74.522766416987281
10
137.97084805622126
20
61.522766416987274
42
-0.41421356237308982
10
137.47084805622126
20
61.022766416987281
10
124.47084805622126
20
61.022766416987267
42
-0.41421356237309503
0
LWPOLYLINE
5
172
100
AcDbEntity
8
0
100
AcDbPolyline
90
8
70
1
43
0.0
10
166.54584805622125
20
93.572766416987264
42
0.4142135623730846
10
166.04584805622125
20
94.072766416987264
10
153.04584805622127
20
94.072766416987278
42
0.41421356237307422
10
152.54584805622127
20
93.572766416987264
10
152.54584805622125
20
80.572766416987264
42
0.41421356237310542
10
153.04584805622127
20
80.072766416987221
10
166.04584805622125
20
80.07276641698725
42
0.4142135623730846
10
166.54584805622125
20
80.572766416987264
0
LWPOLYLINE
5
173
100
AcDbEntity
8
0
100
AcDbPolyline
90
8
70
1
43
0.0
10
204.64584805622124
20
93.572766416987264
10
204.64584805622124
20
80.572766416987264
42
-0.41421356237307422
10
204.14584805622127
20
80.072766416987264
10
191.14584805622127
20
80.07276641698725
42
-0.41421356237309503
10
190.64584805622127
20
80.572766416987264
10
190.64584805622127
20
93.572766416987264
42
-0.41421356237309503
10
191.14584805622127
20
94.072766416987278
10
204.14584805622127
20
94.072766416987236
42
-0.41421356237309503
0
LWPOLYLINE
5
174
100
AcDbEntity
8
0
100
AcDbPolyline
90
8
70
1
43
0.0
10
142.73334805622127
20
55.472766416987284
10
142.73334805622125
20
42.47276641698727
42
-0.41421356237310542
10
142.23334805622125
20
41.972766416987277
10
129.23334805622125
20
41.972766416987255
42
-0.41421356237310025
10
128.73334805622125
20
42.47276641698727
10
128.73334805622125
20
55.472766416987284
42
-0.41421356237310542
10
129.23334805622125
20
55.972766416987277
10
142.23334805622125
20
55.972766416987326
42
-0.41421356237309503
0
LWPOLYLINE
5
175
100
AcDbEntity
8
0
100
AcDbPolyline
90
8
70
1
43
0.0
10
180.83334805622127
20
55.472766416987284
10
180.83334805622121
20
42.47276641698727
42
-0.4142135623730222
10
180.33334805622127
20
41.972766416987277
10
167.33334805622127
20
41.972766416987227
42
-0.4142135623730534
10
166.83334805622124
20
42.47276641698727
10
166.83334805622133
20
55.472766416987284
42
-0.4142135623730222
10
167.33334805622127
20
55.972766416987277
10
180.33334805622127
20
55.97276641698727
42
-0.41421356237312623
0
LWPOLYLINE
5
176
100
AcDbEntity
8
0
100
AcDbPolyline
90
8
70
1
43
0.0
10
205.43334805622123
20
55.972766416987277
42
0.4142135623730222
10
204.93334805622126
20
55.472766416987284
10
204.93334805622126
20
42.47276641698727
42
0.41421356237310025
10
205.43334805622123
20
41.972766416987277
10
218.43334805622129
20
41.972766416987277
42
0.4142135623730222
10
218.93334805622123
20
42.47276641698727
10
218.93334805622123
20
55.472766416987284
42
0.41421356237310025
10
218.43334805622129
20
55.972766416987277
0
LWPOLYLINE
5
177
100
AcDbEntity
8
0
100
AcDbPolyline
90
8
70
1
43
0.0
10
146.99584805622126
20
80.07276641698725
42
0.41421356237307422
10
147.49584805622129
20
80.572766416987264
10
147.49584805622129
20
93.572766416987264
42
0.41421356237307422
10
146.99584805622126
20
94.072766416987278
10
133.99584805622126
20
94.072766416987278
42
0.41421356237307422
10
133.49584805622126
20
93.572766416987264
10
133.49584805622129
20
80.572766416987264
42
0.41421356237309503
10
133.99584805622126
20
80.07276641698725
0
LWPOLYLINE
5
178
100
AcDbEntity
8
0
100
AcDbPolyline
90
8
70
1
43
0.0
10
195.40834805622126
20
23.422766416987265
10
195.40834805622126
20
36.422766416987272
42
-0.41421356237313145
10
195.90834805622126
20
36.922766416987272
10
208.90834805622126
20
36.922766416987287
42
-0.41421356237310025
10
209.40834805622129
20
36.422766416987272
10
209.40834805622129
20
23.422766416987265
42
-0.41421356237305079
10
208.90834805622126
20
22.922766416987269
10
195.90834805622126
20
22.922766416987265
42
-0.41421356237313406
0
LWPOLYLINE
5
179
100
AcDbEntity
8
0
100
AcDbPolyline
90
8
70
1
43
0.0
10
127.50259805622125
20
99.622766416987275
42
0.41421356237307422
10
128.00259805622125
20
99.122766416987261
10
134.00259805622127
20
99.122766416987261
42
0.41421356237307422
10
134.50259805622127
20
99.622766416987275
10
134.50259805622125
20
113.62276641698726
42
0.41421356237309503
10
134.00259805622127
20
114.12276641698726
10
128.00259805622125
20
114.12276641698726
42
0.41421356237307422
10
127.50259805622125
20
113.62276641698726
0
LWPOLYLINE
5
180
100
AcDbEntity
8
0
100
AcDbPolyline
90
8
70
1
43
0.0
10
227.95834805622127
20
22.922766416987269
42
0.41421356237305079
10
228.4583480562213
20
23.422766416987265
10
228.45834805622127
20
36.422766416987272
42
0.41421356237309764
10
227.95834805622127
20
36.922766416987244
10
214.95834805622127
20
36.922766416987272
42
0.41421356237313145
10
214.45834805622127
20
36.422766416987272
10
214.45834805622127
20
23.422766416987265
42
0.41421356237313406
10
214.95834805622127
20
22.922766416987269
0
LWPOLYLINE
5
181
100
AcDbEntity
8
0
100
AcDbPolyline
90
8
70
1
43
0.0
10
123.68334805622126
20
55.472766416987284
42
0.41421356237310025
10
123.18334805622126
20
55.972766416987298
10
110.18334805622129
20
55.972766416987277
42
0.41421356237310542
10
109.68334805622128
20
55.472766416987284
10
109.68334805622128
20
42.47276641698727
42
0.41421356237310025
10
110.18334805622129
20
41.97276641698727
10
123.18334805622126
20
41.972766416987277
42
0.41421356237310542
10
123.68334805622126
20
42.47276641698727
0
LWPOLYLINE
5
182
100
AcDbEntity
8
0
100
AcDbPolyline
90
8
70
1
43
0.0
10
175.57084805622125
20
61.022766416987281
10
162.57084805622128
20
61.022766416987224
42
-0.41421356237305862
10
162.07084805622122
20
61.522766416987274
10
162.07084805622131
20
74.522766416987281
42
-0.4142135623730222
10
162.57084805622128
20
75.022766416987267
10
175.57084805622125
20
75.022766416987267
42
-0.41421356237312623
10
176.07084805622125
20
74.522766416987281
10
176.07084805622122
20
61.522766416987274
42
-0.4142135623730222
0
LWPOLYLINE
5
183
100
AcDbEntity
8
0
100
AcDbPolyline
90
8
70
1
43
0.0
10
172.09584805622129
20
94.072766416987278
42
0.4142135623730846
10
171.59584805622126
20
93.572766416987264
10
171.59584805622126
20
80.572766416987264
42
0.41421356237309503
10
172.09584805622129
20
80.072766416987221
10
185.09584805622126
20
80.072766416987264
42
0.41421356237307422
10
185.59584805622126
20
80.572766416987264
10
185.59584805622126
20
93.572766416987264
42
0.4142135623730846
10
185.09584805622126
20
94.072766416987278
0
LWPOLYLINE
5
184
100
AcDbEntity
8
0
100
AcDbPolyline
90
8
70
1
43
0.0
10
150.66459805622122
20
113.12276641698728
10
163.66459805622128
20
113.12276641698723
42
-0.41421356237309503
10
164.16459805622125
20
112.62276641698726
10
164.16459805622134
20
99.622766416987275
42
-0.4142135623730846
10
163.66459805622128
20
99.122766416987261
10
150.66459805622122
20
99.122766416987304
42
-0.41421356237309503
10
150.16459805622128
20
99.622766416987275
10
150.16459805622122
20
112.62276641698726
42
-0.41421356237309503
0
LWPOLYLINE
5
185
100
AcDbEntity
8
0
100
AcDbPolyline
90
8
70
1
43
0.0
10
248.29584805622125
20
94.072766416987278
42
0.4142135623730846
10
247.79584805622122
20
93.572766416987264
10
247.7958480562213
20
80.572766416987264
42
0.41421356237309503
10
248.29584805622125
20
80.07276641698725
10
261.2958480562213
20
80.072766416987264
42
0.41421356237307422
10
261.7958480562213
20
80.572766416987264
10
261.7958480562213
20
93.572766416987264
42
0.41421356237309503
10
261.2958480562213
20
94.072766416987278
0
LWPOLYLINE
5
186
100
AcDbEntity
8
0
100
AcDbPolyline
90
8
70
1
43
0.0
10
186.82659805622126
20
113.62276641698726
42
0.4142135623730846
10
186.32659805622126
20
114.12276641698725
10
180.32659805622126
20
114.12276641698726
42
0.4142135623730846
10
179.82659805622126
20
113.62276641698726
10
179.82659805622126
20
99.622766416987275
42
0.41421356237309503
10
180.32659805622126
20
99.122766416987304
10
186.32659805622126
20
99.122766416987261
42
0.4142135623730846
10
186.82659805622126
20
99.622766416987275
0
LWPOLYLINE
5
187
100
AcDbEntity
8
0
100
AcDbPolyline
90
8
70
1
43
0.0
10
-24.454151943778726
20
22.922766416987269
10
-37.454151943778697
20
22.92276641698723
42
-0.41421356237309764
10
-37.95415194377874
20
23.422766416987265
10
-37.954151943778697
20
36.422766416987272
42
-0.41421356237310025
10
-37.454151943778697
20
36.922766416987272
10
-24.454151943778726
20
36.922766416987272
42
-0.41421356237308982
10
-23.954151943778719
20
36.422766416987272
10
-23.954151943778726
20
23.422766416987265
42
-0.41421356237309503
0
LWPOLYLINE
5
188
100
AcDbEntity
8
0
100
AcDbPolyline
90
8
70
1
43
0.0
10
66.033348056221257
20
41.972766416987277
42
0.41421356237310542
10
66.533348056221257
20
42.47276641698727
10
66.533348056221257
20
55.472766416987284
42
0.41421356237311585
10
66.033348056221257
20
55.972766416987277
10
53.03334805622125
20
55.972766416987277
42
0.41421356237310542
10
52.533348056221243
20
55.472766416987284
10
52.533348056221243
20
42.47276641698727
42
0.41421356237311585
10
53.03334805622125
20
41.972766416987277
0
LWPOLYLINE
5
189
100
AcDbEntity
8
0
100
AcDbPolyline
90
8
70
1
43
0.0
10
85.870848056221263
20
61.522766416987274
10
85.870848056221263
20
74.522766416987281
42
-0.41421356237310542
10
86.370848056221263
20
75.022766416987267
10
99.370848056221277
20
75.022766416987295
42
-0.41421356237310025
10
99.870848056221291
20
74.522766416987281
10
99.870848056221291
20
61.522766416987274
42
-0.41421356237308982
10
99.370848056221277
20
61.022766416987281
10
86.370848056221263
20
61.022766416987267
42
-0.41421356237309503
0
LWPOLYLINE
5
190
100
AcDbEntity
8
0
100
AcDbPolyline
90
8
70
1
43
0.0
10
-4.9041519437787784
20
12.610266416987269
10
-4.9041519437787864
20
-0.3897335830127302
42
-0.41421356237309598
10
-5.4041519437787855
20
-0.8897335830127312
10
-18.404151943778757
20
-0.88973358301273708
42
-0.41421356237309748
10
-18.904151943778764
20
-0.3897335830127302
10
-18.904151943778757
20
12.610266416987269
42
-0.41421356237309764
10
-18.404151943778757
20
13.110266416987265
10
-5.4041519437787855
20
13.110266416987276
42
-0.41421356237309698
0
LWPOLYLINE
5
191
100
AcDbEntity
8
0
100
AcDbPolyline
90
8
70
1
43
0.0
10
-43.504151943778737
20
-0.8897335830127312
10
-56.504151943778709
20
-0.88973358301277561
42
-0.41421356237308565
10
-57.004151943778751
20
-0.38973358301273131
10
-57.004151943778716
20
12.610266416987269
42
-0.41421356237308982
10
-56.504151943778709
20
13.110266416987271
10
-43.504151943778737
20
13.110266416987242
42
-0.41421356237309631
10
-43.004151943778766
20
12.610266416987269
10
-43.004151943778737
20
-0.38973358301273014
42
-0.41421356237309748
0
LWPOLYLINE
5
192
100
AcDbEntity
8
0
100
AcDbPolyline
90
8
70
1
43
0.0
10
-43.504151943778737
20
41.972766416987277
42
0.41421356237310542
10
-43.004151943778737
20
42.47276641698727
10
-43.004151943778766
20
55.472766416987284
42
0.41421356237310542
10
-43.504151943778737
20
55.972766416987277
10
-56.504151943778709
20
55.972766416987277
42
0.41421356237310542
10
-57.004151943778709
20
55.472766416987284
10
-57.004151943778751
20
42.47276641698727
42
0.41421356237307422
10
-56.504151943778709
20
41.972766416987277
0
LWPOLYLINE
5
193
100
AcDbEntity
8
0
100
AcDbPolyline
90
8
70
1
43
0.0
10
-37.954151943778669
20
99.622766416987275
42
0.41421356237309764
10
-37.454151943778697
20
99.122766416987304
10
-24.454151943778726
20
99.122766416987261
42
0.41421356237307161
10
-23.954151943778719
20
99.622766416987275
10
-23.954151943778719
20
112.62276641698726
42
0.41421356237309243
10
-24.454151943778726
20
113.12276641698728
10
-37.454151943778697
20
113.12276641698728
42
0.41421356237309243
10
-37.954151943778669
20
112.62276641698726
0
LWPOLYLINE
5
194
100
AcDbEntity
8
0
100
AcDbPolyline
90
8
70
1
43
0.0
10
-18.404151943778757
20
36.922766416987272
42
0.41421356237309503
10
-18.904151943778761
20
36.422766416987272
10
-18.904151943778764
20
23.422766416987265
42
0.41421356237309503
10
-18.404151943778757
20
22.922766416987269
10
-5.4041519437787855
20
22.922766416987269
42
0.41421356237309631
10
-4.9041519437787784
20
23.422766416987265
10
-4.9041519437787784
20
36.422766416987272
42
0.41421356237309048
10
-5.4041519437787855
20
36.922766416987272
0
LWPOLYLINE
5
195
100
AcDbEntity
8
0
100
AcDbPolyline
90
8
70
1
43
0.0
10
21.789598056221244
20
66.935766416987278
42
0.41421356237309764
10
22.289598056221248
20
67.435766416987263
10
22.289598056221251
20
73.435766416987278
42
0.41421356237309503
10
21.789598056221244
20
73.935766416987278
10
7.7895980562212586
20
73.935766416987278
42
0.41421356237309503
10
7.2895980562212515
20
73.435766416987278
10
7.2895980562212515
20
67.435766416987263
42
0.41421356237310281
10
7.7895980562212586
20
66.935766416987278
0
LWPOLYLINE
5
196
100
AcDbEntity
8
0
100
AcDbPolyline
90
8
70
1
43
0.0
10
-4.9041519437787784
20
55.472766416987284
42
0.41421356237310281
10
-5.4041519437787855
20
55.972766416987284
10
-18.404151943778757
20
55.972766416987277
42
0.41421356237309764
10
-18.904151943778757
20
55.472766416987284
10
-18.904151943778764
20
42.47276641698727
42
0.41421356237310542
10
-18.404151943778757
20
41.97276641698727
10
-5.4041519437787855
20
41.972766416987277
42
0.41421356237309764
10
-4.9041519437787784
20
42.47276641698727
0
LWPOLYLINE
5
197
100
AcDbEntity
8
0
100
AcDbPolyline
90
8
70
1
43
0.0
10
78.727098056221251
20
99.622766416987275
42
0.41421356237307944
10
79.227098056221266
20
99.122766416987275
10
92.227098056221237
20
99.122766416987261
42
0.41421356237307422
10
92.727098056221251
20
99.622766416987275
10
92.727098056221251
20
112.62276641698726
42
0.41421356237309503
10
92.227098056221237
20
113.12276641698728
10
79.227098056221266
20
113.12276641698728
42
0.41421356237310025
10
78.727098056221251
20
112.62276641698726
0
LWPOLYLINE
5
198
100
AcDbEntity
8
0
100
AcDbPolyline
90
8
70
1
43
0.0
10
272.1083480562213
20
13.110266416987265
10
285.10834805622125
20
13.110266416987324
42
-0.41421356237306123
10
285.6083480562213
20
12.610266416987269
10
285.60834805622119
20
-0.38973358301273014
42
-0.41421356237302581
10
285.10834805622125
20
-0.8897335830127312
10
272.1083480562213
20
-0.88973358301270566
42
-0.41421356237309664
10
271.6083480562213
20
-0.38973358301273131
10
271.60834805622125
20
12.610266416987269
42
-0.41421356237304563
0
LWPOLYLINE
5
199
100
AcDbEntity
8
0
100
AcDbPolyline
90
106
70
1
43
0.0
10
-60.029151943777201
20
113.64776641698739
10
-60.029151943777414
20
0.085266416987277438
10
-57.029151943777457
20
-2.9147335830127452
10
-50.800472286777506
20
-2.9147335830127243
42
-0.19891236737960144
10
-49.739812114998045
20
-3.3540734112324797
10
-45.272045162777452
20
-7.8218403640127026
42
0.19891236756343056
10
-44.564938380777477
20
-8.1147335834559833
10
-42.479151943777545
20
-8.1147335830127236
42
0.41421356237308332
10
-41.979151943777531
20
-7.6147335830127147
10
-41.979151943777552
20
-2.0897335830126926
42
-0.99999999999999989
10
-38.979151943777453
20
-2.0897335827433077
10
-38.979151943777531
20
-7.6147335830127592
42
0.41421356237305729
10
-38.479151943777552
20
-8.1147335830126934
10
-36.393365505777531
20
-8.1147335830127219
42
0.19891236737966125
10
-35.686258724590971
20
-7.8218403641992609
10
-31.218491771777511
20
-3.3540734110127444
42
-0.19891236737960469
10
-30.157831599778213
20
-2.9147335830124623
10
73.02452771322217
20
-2.914733583012711
42
-0.19891236737956891
10
74.085187885001432
20
-3.3540734112333785
10
78.552954837222131
20
-7.8218403640127123
42
0.19891236756342526
10
79.2600616192221
20
-8.1147335834559957
10
81.345848056222096
20
-8.1147335830127165
42
0.4142135623731607
10
81.845848056222152
20
-7.6147335830127254
10
81.845848056222138
20
-2.0897335830126984
42
-0.99999999999999989
10
84.845848056222138
20
-2.0897335827435666
10
84.84584805622211
20
-7.6147335830127698
42
0.4142135623730957
10
85.345848056222152
20
-8.1147335830127414
10
87.431634494222052
20
-8.1147335830127449
42
0.19891236737968712
10
88.138741275408634
20
-7.8218403641992822
10
92.60650822822214
20
-3.3540734110127577
42
-0.1989123673796018
10
93.667168400222053
20
-2.9147335830131125
10
158.74952771322182
20
-2.914733583012719
42
-0.19891236737974305
10
159.81018788500211
20
-3.3540734112333501
10
164.27795483722181
20
-7.8218403640127292
42
0.19891236756342709
10
164.98506161922191
20
-8.1147335834560526
10
167.07084805622185
20
-8.1147335830127396
42
0.41421356237307355
10
167.57084805622182
20
-7.6147335830127325
10
167.57084805622179
20
-3.6647335830127497
42
-0.99999999999999989
10
170.57084805622182
20
-3.664733582397333
10
170.57084805622182
20
-7.6147335830127725
42
0.41421356237316592
10
171.07084805622182
20
-8.1147335830127592
10
173.15663449422181
20
-8.1147335830127414
42
0.19891236737964207
10
173.86374127540836
20
-7.8218403641993062
10
178.33150822822182
20
-3.3540734110127417
42
-0.1989123673795809
10
179.3921684002211
20
-2.9147335830127998
10
244.47452771322165
20
-2.9147335830126893
42
-0.19891236737970369
10
245.53518788500159
20
-3.3540734112333221
10
250.00295483722155
20
-7.8218403640126972
42
0.19891236756343486
10
250.71006161922162
20
-8.114733583456001
10
252.79584805622162
20
-8.1147335830127059
42
0.41421356237314122
10
253.29584805622162
20
-7.6147335830127041
10
253.29584805622162
20
-3.6647335830126684
42
-0.99999999999999989
10
256.29584805622159
20
-3.6647335823973402
10
256.29584805622159
20
-7.6147335830127441
42
0.41421356237306578
10
256.79584805622159
20
-8.1147335830127005
10
258.8816344942216
20
-8.1147335830127183
42
0.19891236737964099
10
259.58874127540804
20
-7.8218403641992751
10
264.05650822822156
20
-3.3540734110127217
42
-0.19891236737975609
10
265.11716840022211
20
-2.9147335830125227
10
285.63334805622151
20
-2.9147335830127159
10
288.63334805622151
20
0.085266416987306859
10
288.63334805622168
20
113.64776641698742
10
285.63334805622168
20
116.64776641698742
10
248.82961671322181
20
116.64776641698739
42
-0.19891236737963156
10
247.76895654144198
20
117.08710624520768
10
245.30118958822189
20
119.55487319798748
42
0.19891236737966286
10
244.59408280722181
20
119.8477664167236
10
242.50829636922177
20
119.84776641698743
42
0.41421356237310542
10
242.00829636922185
20
119.34776641698744
10
242.0082963692218
20
115.82276641698746
42
-0.99999999999999989
10
239.00829636922126
20
115.82276641760275
10
239.00829636922185
20
119.34776641698744
42
0.41421356237301177
10
238.50829636922185
20
119.84776641698744
10
236.42250993222183
20
119.84776641698743
42
0.19891236737973741
10
235.71540315103533
20
119.55487319817399
10
233.24763619822193
20
117.08710624498741
42
-0.19891236735340292
10
232.18697602637351
20
116.64776641698738
10
82.142116713222322
20
116.64776641698744
42
-0.19891236737966642
10
81.081456541442606
20
117.08710624520775
10
78.613689588222357
20
119.55487319798742
42
0.19891236737962825
10
77.906582807222392
20
119.84776641672356
10
75.820796369222364
20
119.84776641698744
42
0.41421356237310542
10
75.32079636922235
20
119.34776641698745
10
75.320796369222322
20
115.82276641698743
42
-0.99999999999999989
10
72.320796369221867
20
115.82276641760274
10
72.320796369222393
20
119.34776641698745
42
0.41421356237304302
10
71.820796369222393
20
119.84776641698744
10
69.735009932222411
20
119.84776641698744
42
0.19891236737967527
10
69.027903151035844
20
119.55487319817395
10
66.560136198222366
20
117.08710624498742
42
-0.1989123673532979
10
65.499476026374097
20
116.64776641698793
10
-13.107831599777304
20
116.64776641698742
42
-0.19891236737973464
10
-14.168491771557612
20
117.08710624520776
10
-16.636258724777285
20
119.55487319798742
42
0.19891236737967663
10
-17.343365505777374
20
119.84776641672369
10
-19.429151943777381
20
119.84776641698743
42
0.4142135623730937
10
-19.929151943777402
20
119.3477664169874
10
-19.929151943777388
20
115.82276641698742
42
-0.99999999999999989
10
-22.929151943776915
20
115.82276641760272
10
-22.929151943777313
20
119.34776641698745
42
0.41421356237307161
10
-23.42915194377737
20
119.84776641698744
10
-25.514938380777316
20
119.84776641698744
42
0.19891236737963361
10
-26.222045161963848
20
119.55487319817401
10
-28.689812114777304
20
117.08710624498742
42
-0.19891236735335191
10
-29.750472286625254
20
116.64776641698722
10
-57.029151943777208
20
116.64776641698739
0
ENDSEC
0
SECTION
2
OBJECTS
0
DICTIONARY
5
C
100
AcDbDictionary
3
ACAD_GROUP
350
D
3
ACAD_MLINESTYLE
350
17
0
DICTIONARY
5
D
100
AcDbDictionary
0
DICTIONARY
5
1A
330
C
100
AcDbDictionary
0
DICTIONARY
5
17
100
AcDbDictionary
0
ENDSEC
0
EOF
